<svg viewBox="0 0 330 200" xmlns="http://www.w3.org/2000/svg"><g><g><g><g><g><line x1="51.5625" y1="176.921875" x2="46.5625" y2="176.921875" style="visibility: inherit;" fill="rgb(0, 0, 0)" stroke="rgb(204, 204, 204)" stroke-width="1px"></line><line x1="51.5625" y1="157.26388888888889" x2="46.5625" y2="157.26388888888889" style="visibility: inherit;" fill="rgb(0, 0, 0)" stroke="rgb(204, 204, 204)" stroke-width="1px"></line><line x1="51.5625" y1="137.60590277777777" x2="46.5625" y2="137.60590277777777" style="visibility: inherit;" fill="rgb(0, 0, 0)" stroke="rgb(204, 204, 204)" stroke-width="1px"></line><line x1="51.5625" y1="117.94791666666666" x2="46.5625" y2="117.94791666666666" style="visibility: inherit;" fill="rgb(0, 0, 0)" stroke="rgb(204, 204, 204)" stroke-width="1px"></line><line x1="51.5625" y1="98.28993055555556" x2="46.5625" y2="98.28993055555556" style="visibility: inherit;" fill="rgb(0, 0, 0)" stroke="rgb(204, 204, 204)" stroke-width="1px"></line><line x1="51.5625" y1="78.63194444444444" x2="46.5625" y2="78.63194444444444" style="visibility: inherit;" fill="rgb(0, 0, 0)" stroke="rgb(204, 204, 204)" stroke-width="1px"></line><line x1="51.5625" y1="58.97395833333332" x2="46.5625" y2="58.97395833333332" style="visibility: inherit;" fill="rgb(0, 0, 0)" stroke="rgb(204, 204, 204)" stroke-width="1px"></line><line x1="51.5625" y1="39.31597222222222" x2="46.5625" y2="39.31597222222222" style="visibility: inherit;" fill="rgb(0, 0, 0)" stroke="rgb(204, 204, 204)" stroke-width="1px"></line><line x1="51.5625" y1="19.657986111111082" x2="46.5625" y2="19.657986111111082" style="visibility: inherit;" fill="rgb(0, 0, 0)" stroke="rgb(204, 204, 204)" stroke-width="1px"></line><line x1="51.5625" y1="0" x2="46.5625" y2="0" style="visibility: inherit;" fill="rgb(0, 0, 0)" stroke="rgb(204, 204, 204)" stroke-width="1px"></line></g><g transform="translate(41.5625, 0)"><text x="0" y="176.921875" dx="0em" dy="0.3em" style="text-anchor: end; visibility: hidden; font-family: Roboto, sans-serif; font-size: 12px; font-weight: 200;" fill="rgb(33, 33, 33)" stroke="none" stroke-width="1px">-1.2</text><text x="0" y="157.26388888888889" dx="0em" dy="0.3em" style="text-anchor: end; visibility: inherit; font-family: Roboto, sans-serif; font-size: 12px; font-weight: 200;" fill="rgb(33, 33, 33)" stroke="none" stroke-width="1px">-1</text><text x="0" y="137.60590277777777" dx="0em" dy="0.3em" style="text-anchor: end; visibility: hidden; font-family: Roboto, sans-serif; font-size: 12px; font-weight: 200;" fill="rgb(33, 33, 33)" stroke="none" stroke-width="1px">-0.8</text><text x="0" y="117.94791666666666" dx="0em" dy="0.3em" style="text-anchor: end; visibility: inherit; font-family: Roboto, sans-serif; font-size: 12px; font-weight: 200;" fill="rgb(33, 33, 33)" stroke="none" stroke-width="1px">-0.6</text><text x="0" y="98.28993055555556" dx="0em" dy="0.3em" style="text-anchor: end; visibility: hidden; font-family: Roboto, sans-serif; font-size: 12px; font-weight: 200;" fill="rgb(33, 33, 33)" stroke="none" stroke-width="1px">-0.4</text><text x="0" y="78.63194444444444" dx="0em" dy="0.3em" style="text-anchor: end; visibility: inherit; font-family: Roboto, sans-serif; font-size: 12px; font-weight: 200;" fill="rgb(33, 33, 33)" stroke="none" stroke-width="1px">-0.2</text><text x="0" y="58.97395833333332" dx="0em" dy="0.3em" style="text-anchor: end; visibility: hidden; font-family: Roboto, sans-serif; font-size: 12px; font-weight: 200;" fill="rgb(33, 33, 33)" stroke="none" stroke-width="1px">0</text><text x="0" y="39.31597222222222" dx="0em" dy="0.3em" style="text-anchor: end; visibility: inherit; font-family: Roboto, sans-serif; font-size: 12px; font-weight: 200;" fill="rgb(33, 33, 33)" stroke="none" stroke-width="1px">0.2</text><text x="0" y="19.657986111111082" dx="0em" dy="0.3em" style="text-anchor: end; visibility: hidden; font-family: Roboto, sans-serif; font-size: 12px; font-weight: 200;" fill="rgb(33, 33, 33)" stroke="none" stroke-width="1px">0.4</text><text x="0" y="0" dx="0em" dy="0.3em" style="text-anchor: end; visibility: hidden; font-family: Roboto, sans-serif; font-size: 12px; font-weight: 200;" fill="rgb(33, 33, 33)" stroke="none" stroke-width="1px">0.6</text></g><line x1="51.5625" y1="0" x2="51.5625" y2="176.921875" fill="rgb(0, 0, 0)" stroke="rgb(204, 204, 204)" stroke-width="1px"></line></g></g><g transform="translate(51, 0)" clip-path="url(#clip_0)"><clipPath id="clip_0"><rect width="278" height="176"></rect></clipPath><g><g><g><line x1="0" y1="0" x2="0" y2="176.921875" fill="rgb(0, 0, 0)" stroke="rgb(66, 66, 66)" stroke-width="1px" opacity="0.25"></line><line x1="23.203125" y1="0" x2="23.203125" y2="176.921875" fill="rgb(0, 0, 0)" stroke="rgb(66, 66, 66)" stroke-width="1px" opacity="0.25"></line><line x1="46.40625" y1="0" x2="46.40625" y2="176.921875" fill="rgb(0, 0, 0)" stroke="rgb(66, 66, 66)" stroke-width="1px" opacity="0.25"></line><line x1="69.609375" y1="0" x2="69.609375" y2="176.921875" fill="rgb(0, 0, 0)" stroke="rgb(66, 66, 66)" stroke-width="1px" opacity="0.25"></line><line x1="92.8125" y1="0" x2="92.8125" y2="176.921875" fill="rgb(0, 0, 0)" stroke="rgb(66, 66, 66)" stroke-width="1px" opacity="0.25"></line><line x1="116.015625" y1="0" x2="116.015625" y2="176.921875" fill="rgb(0, 0, 0)" stroke="rgb(66, 66, 66)" stroke-width="1px" opacity="0.25"></line><line x1="139.21875" y1="0" x2="139.21875" y2="176.921875" fill="rgb(0, 0, 0)" stroke="rgb(66, 66, 66)" stroke-width="1px" opacity="0.25"></line><line x1="162.421875" y1="0" x2="162.421875" y2="176.921875" fill="rgb(0, 0, 0)" stroke="rgb(66, 66, 66)" stroke-width="1px" opacity="0.25"></line><line x1="185.625" y1="0" x2="185.625" y2="176.921875" fill="rgb(0, 0, 0)" stroke="rgb(66, 66, 66)" stroke-width="1px" opacity="0.25"></line><line x1="208.828125" y1="0" x2="208.828125" y2="176.921875" fill="rgb(0, 0, 0)" stroke="rgb(66, 66, 66)" stroke-width="1px" opacity="0.25"></line><line x1="232.03125" y1="0" x2="232.03125" y2="176.921875" fill="rgb(0, 0, 0)" stroke="rgb(66, 66, 66)" stroke-width="1px" opacity="0.25"></line><line x1="255.234375" y1="0" x2="255.234375" y2="176.921875" fill="rgb(0, 0, 0)" stroke="rgb(66, 66, 66)" stroke-width="1px" opacity="0.25"></line><line x1="278.4375" y1="0" x2="278.4375" y2="176.921875" fill="rgb(0, 0, 0)" stroke="rgb(66, 66, 66)" stroke-width="1px" opacity="0.25"></line></g><g><line x1="0" y1="176.921875" x2="278.4375" y2="176.921875" fill="rgb(0, 0, 0)" stroke="rgb(66, 66, 66)" stroke-width="1px" opacity="0.25"></line><line x1="0" y1="157.26388888888889" x2="278.4375" y2="157.26388888888889" fill="rgb(0, 0, 0)" stroke="rgb(66, 66, 66)" stroke-width="1px" opacity="0.25"></line><line x1="0" y1="137.60590277777777" x2="278.4375" y2="137.60590277777777" fill="rgb(0, 0, 0)" stroke="rgb(66, 66, 66)" stroke-width="1px" opacity="0.25"></line><line x1="0" y1="117.94791666666666" x2="278.4375" y2="117.94791666666666" fill="rgb(0, 0, 0)" stroke="rgb(66, 66, 66)" stroke-width="1px" opacity="0.25"></line><line x1="0" y1="98.28993055555556" x2="278.4375" y2="98.28993055555556" fill="rgb(0, 0, 0)" stroke="rgb(66, 66, 66)" stroke-width="1px" opacity="0.25"></line><line x1="0" y1="78.63194444444444" x2="278.4375" y2="78.63194444444444" fill="rgb(0, 0, 0)" stroke="rgb(66, 66, 66)" stroke-width="1px" opacity="0.25"></line><line x1="0" y1="58.97395833333332" x2="278.4375" y2="58.97395833333332" fill="rgb(0, 0, 0)" stroke="rgb(66, 66, 66)" stroke-width="1px" opacity="0.25"></line><line x1="0" y1="39.31597222222222" x2="278.4375" y2="39.31597222222222" fill="rgb(0, 0, 0)" stroke="rgb(66, 66, 66)" stroke-width="1px" opacity="0.25"></line><line x1="0" y1="19.657986111111082" x2="278.4375" y2="19.657986111111082" fill="rgb(0, 0, 0)" stroke="rgb(66, 66, 66)" stroke-width="1px" opacity="0.25"></line><line x1="0" y1="0" x2="278.4375" y2="0" fill="rgb(0, 0, 0)" stroke="rgb(66, 66, 66)" stroke-width="1px" opacity="0.25"></line></g></g></g><g><g><line x1="0" y1="58.97395833333332" x2="278.4375" y2="58.97395833333332" fill="rgb(0, 0, 0)" stroke="rgb(153, 153, 153)" stroke-width="1.5px"></line></g></g><g><g><line x1="23.203125" y1="0" x2="23.203125" y2="176.921875" fill="rgb(0, 0, 0)" stroke="rgb(153, 153, 153)" stroke-width="1.5px"></line></g></g><g><g><g><g><g><path stroke="rgb(187, 187, 187)" stroke-width="2px" d="M25.542,157.26388888888889L27.880875,108.09433883608544L30.219749999999998,91.70449428723363L32.558625,108.11894820817903L34.8975,98.2702725694367L37.236375,99.91582280424825L39.57525,108.13301420278226L41.914125,114.29590055445435L44.253,119.08925020822753L46.591875,103.17731486561505L48.930749999999996,103.62880270469975L51.269625000000005,91.65107974949866L53.6085,96.7285724441558L55.947375,101.080699600546L58.28625,91.6552282295619L60.625125,83.40796141870321L62.964,76.13098071612238L65.302875,77.92324192970646L67.64175,79.52683925258816L70.01775,80.9700722683897L72.35662500000001,78.3363090215803L74.6955,74.43704876289321L77.034375,78.07798709069809L79.37325000000001,80.0345987115035L81.712125,83.16100109350124L84.051,82.219049478841L86.389875,85.03478937754622L88.765875,84.09141960750851L91.10475,82.06744868081219L93.443625,79.62440442339647L95.819625,81.09385315595604L98.15849999999999,83.51126465346108L100.497375,82.75574559256262L102.83625,82.04467274411891L105.175125,84.23054756871935L107.514,84.44273923672273L109.852875,82.38962292210624L112.19175,83.07931734772592L114.530625,82.44940925461647L116.8695,80.59825436540694L119.20837499999999,82.50580766959312L121.54725,82.4116684666086L123.886125,80.68799184860521L126.225,79.61323858848608L128.563875,79.14442020618843L130.939875,78.38381844259764L133.27875,80.10102764953281L135.617625,77.55423123148515L137.9565,77.85068570281081L140.295375,78.13527966885682L142.67137499999998,75.77424059852741L145.0845,74.15030226714865L147.423375,74.49083708964079L149.76225000000002,74.66301816623513L152.101125,76.2057803301433L154.44,74.08562328861937L156.77887500000003,72.0398768340704L159.11775,73.55154564504181L161.456625,75.01195731475364L163.7955,76.4236747004316L166.134375,76.12894323091264L168.47324999999998,75.84372213063713L170.812125,75.56755852484407L173.151,76.88470939493239L175.48987499999998,75.81970765617454L177.82875,76.17135408123877L180.16762500000002,77.42208437923854L182.5065,77.14159543193946L184.84537500000002,75.39574993583825L187.18425,73.69980526107224L189.523125,73.00725269248277L191.899125,72.80534241427809L194.238,74.00447349878281L196.576875,75.17118142708013L198.91575,74.04070216699054L201.254625,73.83492584427142L203.59349999999998,74.07637363669664L205.932375,75.18448159238285L208.27125,76.26452212885705L210.61012499999998,75.72028501607572L212.949,75.50515738661322L215.325,76.54315474313137L217.663875,75.08922847883525L220.039875,74.88930547982352L222.37875,75.89970458855977L224.717625,75.6944077874747L227.13075,74.31477115884772L229.469625,75.29898646715243L231.8085,75.10736727775169L234.14737499999998,74.92000907414125L236.48625,75.86623096708816L238.825125,76.23300210337324L241.164,76.92375802251753L243.50287500000002,77.81881247193067L245.84175,77.61097311857033L248.180625,77.76522465015013L250.51950000000002,77.9162933186144L252.858375,78.76587978250251L255.19725,78.81657386460091" style="fill: none;" fill="none"></path></g><g><path stroke="rgb(255, 112, 67)" stroke-width="2px" d="M25.542,157.26388888888889L27.880875,58.92478878328051L30.219749999999998,26.145099685578217L32.558625,34.364635433658044L34.8975,58.99369501036279L37.2735,58.990397330976776L39.61237500000001,73.07164094853434L41.95125,71.30325362926702L44.290124999999996,80.8927037578787L46.629000000000005,78.69094768800122L48.967875,83.62467506331724L51.30675,89.79510068602674L53.645625,83.60686804304811L56.021625,80.65816612998631L58.3605,79.20240598171272L60.699374999999996,84.11794371035865L63.03825,79.1301255072277L65.377125,83.50790353565623L67.716,87.4248510616921L70.054875,90.95009266073552L72.39375,94.13958632239851L74.73262500000001,91.39559693912292L77.0715,92.85084023797106L79.410375,95.56571051645116L81.74925,98.06338117204649L84.08812499999999,100.36891369975251L86.427,96.97178647571394L88.765875,95.59631221183511L91.10475,97.75269985252596L93.443625,99.76531857989039L95.7825,101.64808151462825L98.121375,101.85344689134187L100.46025,103.55956917533565L102.83625,102.22646426797752L105.175125,101.92164765382162L107.514,101.63376697696303L109.852875,99.78376317516991L112.19175,100.0071937984427L114.56774999999999,98.9349356715048L116.906625,100.42178926698492L119.282625,98.4122675087193L121.62150000000001,97.45387247570233L123.960375,96.54006035877005L126.29925,96.42854159331837L128.638125,95.57776594046126L130.977,94.76398664265085L133.315875,93.44990237564234L135.65475,93.76274737073426L137.993625,95.09005094191946L140.3325,95.02133847933224L142.7085,96.27255624830251L145.04737500000002,96.82936779229068L147.38625,97.99955584390115L149.725125,98.1919630714262L152.06400000000002,98.37737200221883L154.402875,99.4581092717778L156.77887500000003,100.50091619324506L159.11775,101.50775468128566L161.456625,100.33704568968749L163.7955,99.62711720012187L166.134375,99.7705466135134L168.51037499999998,99.63698426109765L170.88637500000002,100.5803557252107L173.22525,101.49423722629558L175.564125,101.33927373971812L177.940125,99.90718904860006L180.279,100.79182981675069L182.617875,101.15230234107571L184.95675,101.25674076111419L187.33274999999998,100.6316149383681L189.671625,101.4575050650303L192.0105,100.84625409856523L194.34937499999998,100.94951048224507L196.68825,101.04997492941303L199.02712499999998,100.46794083806097L201.36599999999999,101.2436400511277L203.70487500000002,101.1154282242543L206.04375,100.88139870085405L208.41975000000002,101.62330677446444L210.758625,101.06884740672659L213.0975,100.94897155136212L215.43637500000003,99.16818755222323L217.77525,99.89723556275534L220.114125,99.38954911138183L222.453,99.49662282088454L224.791875,99.79990236204775L227.13075,100.48922640943081L229.469625,101.16287422468517L231.845625,100.66767104350052L234.18449999999999,101.32492616814194L236.52337500000002,101.77948318853221L238.899375,101.57214069823485L241.23825,101.09269544262142L243.577125,99.52842860145061L245.916,100.16519132955932L248.254875,99.71540529873839L250.59375,98.92065649429428L252.932625,98.91390322447698L255.27149999999997,98.14294251821437" style="fill: none;" fill="none"></path></g><g><path stroke="rgb(0, 153, 136)" stroke-width="2px" d="M25.542,157.26388888888889L27.880875,157.2638888888903L30.219749999999998,124.46779354038708L32.558625,95.76506802645845L34.8975,108.08945633911499L37.236375,116.30570836049071L39.57525,112.78538800263459L41.914125,110.14515081760214L44.253,93.47182143575279L46.629000000000005,99.87978726611935L48.967875,105.12265965319577L51.30675,109.49171195782223L53.645625,105.58236059269586L55.984500000000004,109.29795334072364L58.323375,112.51812620110584L60.66224999999999,115.33577040279746L63.001125,111.99376687810594L65.34,114.53021894320129L67.67887499999999,113.31975735795034L70.01775,115.53791049015703L72.35662500000001,112.81735493242523L74.73262500000001,112.60153883901027L77.10862499999999,114.56482588290874L79.4475,114.98359639438422L81.8235,108.7372287564561L84.16237500000001,108.07517431539338L86.50125,109.92077259076346L88.87724999999999,111.63453469832115L91.216125,111.51160104815284L93.555,109.73482183517478L95.893875,108.99224085325157L98.23275,104.28537711066242L100.57162500000001,101.37700576597912L102.9105,100.10915926680889L105.249375,101.77007905554078L107.6625,103.33871636329398L110.001375,104.82255355345441L112.34025,106.22828537221139L114.679125,105.84961404966349L117.018,104.6547145461089L119.394,105.14850876967084L121.73287499999999,101.63786026761929L124.07175,99.45760448560775L126.41062500000001,96.23534093290515L128.74949999999998,96.1331678653884L131.08837499999998,94.57864380051637L133.42725000000002,95.94329369745113L135.766125,95.85359216932142L138.105,95.08273248831047L140.443875,94.34271324386185L142.78275000000002,93.63172029258962L145.121625,92.9480790405977L147.4605,90.38706242895043L149.799375,91.65864233995275L152.13825,91.04818032685819L154.477125,92.26342938312287L156.816,93.43602716694554L159.154875,93.40589529532569L161.49374999999998,94.51993601422855L163.832625,92.22286560056777L166.1715,92.90639261063339L168.51037499999998,93.43168185632885L170.88637500000002,92.3312513140466L173.22525,93.37812918111509L175.564125,93.35206848839219L177.940125,94.35225271788815L180.279,93.30127101145736L182.617875,91.28493228655044L184.95675,92.27403987776952L187.295625,93.23487619223435L189.6345,94.16863579108602L191.973375,93.6622566804543L194.31224999999998,94.56526410113374L196.651125,93.37786110556853L198.99,93.35516693619076L201.32887499999998,93.55680516616442L203.66775,93.0903884675187L206.006625,93.94521825953225L208.3455,94.77839594986717L210.68437500000002,95.59073349250482L213.02325,93.85768717441827L215.362125,92.99884986849558L217.70100000000002,91.33841965438835L220.039875,91.3433677102111L222.37875,92.1519427959946L224.717625,92.9417026118237L227.0565,92.53423378862277L229.395375,90.96979290353305L231.771375,90.59423361908438L234.11025,90.22702554820391L236.44912499999998,90.43262316749977L238.825125,91.19261488473538L241.164,91.93625128175975L243.50287500000002,91.56902450918427L245.84175,91.20953446341888L248.180625,90.8575393716452L250.51950000000002,89.98144179712793L252.858375,88.59703522529568L255.19725,87.24061863660317" style="fill: none;" fill="none"></path></g></g></g></g><g opacity="0.2"><g><g><g><path stroke="rgb(187, 187, 187)" stroke-width="2px" d="M25.542,157.26388888888889L27.880875,58.97395833333332L30.219749999999998,58.97395833333332L32.558625,157.26388888888889L34.8975,58.97395833333332L37.236375,108.11892361111111L39.57525,157.26388888888889L41.914125,157.26388888888889L44.253,157.26388888888889L46.591875,-39.31597222222228L48.930749999999996,108.11892361111111L51.269625000000005,-39.31597222222228L53.6085,157.26388888888889L55.947375,157.26388888888889L58.28625,-39.31597222222228L62.964,-39.31597222222228L65.302875,108.11892361111111L67.64175,108.11892361111111L70.01775,108.11892361111111L72.35662500000001,26.210647171725405L74.6955,-6.5526639898825065L77.034375,157.26388888888889L79.37325000000001,124.50058065654916L81.712125,157.26388888888889L84.051,58.97395833333332L86.389875,157.26388888888889L88.765875,58.97395833333332L91.10475,26.210647171725405L93.443625,9.828993055555541L95.819625,124.50058065654916L98.15849999999999,157.26388888888889L100.497375,58.97395833333332L102.83625,58.97395833333332L105.175125,157.26388888888889L107.514,91.73726949494123L109.852875,9.828993055555541L112.19175,108.11892361111111L114.530625,58.97395833333332L116.8695,9.828993055555541L119.20837499999999,157.26388888888889L121.54725,78.63194473737126L123.886125,9.828993055555541L126.225,34.40147569444444L128.563875,58.97395833333332L130.939875,44.93253905483935L133.27875,157.26388888888889L135.617625,-39.31597222222228L137.9565,91.73726949494123L140.295375,91.73726949494123L142.67137499999998,-39.31597222222228L145.0845,-6.5526639898825065L147.423375,91.73726949494123L149.76225000000002,83.54644097222221L152.101125,157.26388888888889L154.44,-39.31597222222228L156.77887500000003,-39.31597222222228L159.11775,157.26388888888889L161.456625,157.26388888888889L163.7955,157.26388888888889L166.134375,58.97395833333332L168.47324999999998,58.97395833333332L170.812125,58.97395833333332L173.151,157.26388888888889L175.48987499999998,9.828993055555541L177.82875,98.2899311414092L180.16762500000002,157.26388888888889L182.5065,58.97395833333332L184.84537500000002,-39.31597222222228L187.18425,-39.31597222222228L189.523125,26.210647171725405L191.899125,58.97395833333332L194.238,157.26388888888889L196.576875,157.26388888888889L198.91575,-6.5526639898825065L201.254625,58.97395833333332L203.59349999999998,91.73726949494123L205.932375,157.26388888888889L208.27125,157.26388888888889L210.61012499999998,34.40147569444444L212.949,58.97395833333332L215.325,157.26388888888889L217.663875,-39.31597222222228L220.039875,58.97395833333332L222.37875,157.26388888888889L224.717625,58.97395833333332L227.13075,-39.31597222222228L229.469625,157.26388888888889L231.8085,58.97395833333332L234.14737499999998,58.97395833333332L236.48625,157.26388888888889L238.825125,108.11892361111111L241.164,137.60590394948505L243.50287500000002,157.26388888888889L245.84175,58.97395833333332L248.180625,91.73726949494123L250.51950000000002,91.73726949494123L252.858375,157.26388888888889L255.19725,83.54644097222221" style="fill: none;" fill="none"></path></g><g><path stroke="rgb(255, 112, 67)" stroke-width="2px" d="M25.542,157.26388888888889L27.880875,-39.31597222222228L30.219749999999998,-39.31597222222228L32.558625,58.97395833333332L34.8975,157.26388888888889L37.2735,58.97395833333332L39.61237500000001,157.26388888888889L41.95125,58.97395833333332L44.290124999999996,157.26388888888889L46.629000000000005,58.97395833333332L48.967875,132.69140625L51.30675,157.26388888888889L53.645625,9.828993055555541L56.021625,42.59230275252936L58.3605,58.97395833333332L60.699374999999996,157.26388888888889L63.03825,-0.0000023434145757644798L65.377125,157.26388888888889L67.716,157.26388888888889L70.054875,157.26388888888889L72.39375,157.26388888888889L74.73262500000001,34.40147569444444L77.0715,124.50058065654916L79.410375,157.26388888888889L81.74925,157.26388888888889L84.08812499999999,157.26388888888889L86.427,9.828993055555541L88.765875,58.97395833333332L91.10475,157.26388888888889L93.443625,157.26388888888889L95.7825,157.26388888888889L98.121375,108.11892361111111L100.46025,157.26388888888889L102.83625,58.97395833333332L105.175125,91.73726949494123L107.514,91.73726949494123L109.852875,34.40147569444444L112.19175,108.11892361111111L114.56774999999999,58.97395833333332L116.906625,157.26388888888889L119.282625,19.657985525257455L121.62150000000001,58.97395833333332L123.960375,58.97395833333332L126.29925,91.73726949494123L128.638125,58.97395833333332L130.977,58.97395833333332L133.315875,34.40147569444444L135.65475,108.11892361111111L137.993625,157.26388888888889L140.3325,91.73726949494123L142.7085,157.26388888888889L145.04737500000002,124.50058065654916L147.38625,157.26388888888889L149.725125,108.11892361111111L152.06400000000002,108.11892361111111L154.402875,157.26388888888889L156.77887500000003,157.26388888888889L159.11775,157.26388888888889L161.456625,34.40147569444444L163.7955,58.97395833333332L166.134375,108.11892361111111L168.51037499999998,91.73726949494123L170.88637500000002,157.26388888888889L173.22525,157.26388888888889L175.564125,91.73726949494123L177.940125,9.828993055555541L180.279,157.26388888888889L182.617875,124.50058065654916L184.95675,108.11892361111111L187.33274999999998,58.97395833333332L189.671625,157.26388888888889L192.0105,58.97395833333332L194.34937499999998,108.11892361111111L196.68825,108.11892361111111L199.02712499999998,58.97395833333332L201.36599999999999,157.26388888888889L203.70487500000002,91.73726949494123L206.04375,83.54644097222221L208.41975000000002,157.26388888888889L210.758625,58.97395833333332L213.0975,91.73726949494123L215.43637500000003,-39.31597222222228L217.77525,157.26388888888889L220.114125,58.97395833333332L222.453,108.11892361111111L224.791875,124.50058065654916L227.13075,157.26388888888889L229.469625,157.26388888888889L231.845625,58.97395833333332L234.18449999999999,157.26388888888889L236.52337500000002,140.88223184345082L238.899375,83.54644097222221L241.23825,58.97395833333332L243.577125,-39.31597222222228L245.916,157.26388888888889L248.254875,58.97395833333332L250.59375,26.210647171725405L252.932625,98.2899311414092L255.27149999999997,26.210647171725405" style="fill: none;" fill="none"></path></g><g><path stroke="rgb(0, 153, 136)" stroke-width="2px" d="M25.542,157.26388888888889L27.880875,157.26388888888889L30.219749999999998,58.97395833333332L32.558625,9.828993055555541L34.8975,157.26388888888889L37.236375,157.26388888888889L39.57525,91.73726949494123L41.914125,91.73726949494123L44.253,-39.31597222222228L46.629000000000005,157.26388888888889L48.967875,157.26388888888889L51.30675,157.26388888888889L53.645625,58.97395833333332L55.984500000000004,157.26388888888889L58.323375,157.26388888888889L60.66224999999999,157.26388888888889L63.001125,58.97395833333332L65.34,157.26388888888889L67.67887499999999,91.73726949494123L70.01775,157.26388888888889L72.35662500000001,58.97395833333332L74.73262500000001,108.11892361111111L77.10862499999999,157.26388888888889L79.4475,124.50058065654916L81.8235,-39.31597222222228L84.16237500000001,91.73726949494123L86.50125,157.26388888888889L88.87724999999999,157.26388888888889L91.216125,108.11892361111111L93.555,58.97395833333332L95.893875,87.05679689032128L98.23275,-39.31597222222228L100.57162500000001,9.828993055555541L102.9105,58.97395833333332L105.249375,157.26388888888889L107.6625,157.26388888888889L110.001375,157.26388888888889L112.34025,157.26388888888889L114.679125,91.73726949494123L117.018,58.97395833333332L119.394,124.50058065654916L121.73287499999999,-39.31597222222228L124.07175,9.828993055555541L126.41062500000001,-39.31597222222228L128.74949999999998,91.73726949494123L131.08837499999998,26.210647171725405L133.42725000000002,157.26388888888889L135.766125,91.73726949494123L138.105,58.97395833333332L140.443875,58.97395833333332L142.78275000000002,58.97395833333332L145.121625,58.97395833333332L147.4605,-39.31597222222228L149.799375,157.26388888888889L152.13825,58.97395833333332L154.477125,157.26388888888889L156.816,157.26388888888889L159.154875,91.73726949494123L161.49374999999998,157.26388888888889L163.832625,-39.31597222222228L166.1715,132.69140625L168.51037499999998,124.50058065654916L170.88637500000002,26.210647171725405L173.22525,157.26388888888889L175.564125,91.73726949494123L177.940125,157.26388888888889L180.279,26.210647171725405L182.617875,-39.31597222222228L184.95675,157.26388888888889L187.295625,157.26388888888889L189.6345,157.26388888888889L191.973375,58.97395833333332L194.31224999999998,157.26388888888889L196.651125,9.828993055555541L198.99,91.73726949494123L201.32887499999998,108.11892361111111L203.66775,58.97395833333332L206.006625,157.26388888888889L208.3455,157.26388888888889L210.68437500000002,157.26388888888889L213.02325,-39.31597222222228L215.362125,26.210647171725405L217.70100000000002,-39.31597222222228L220.039875,91.73726949494123L222.37875,157.26388888888889L224.717625,157.26388888888889L227.0565,58.97395833333332L229.395375,-39.31597222222228L231.771375,58.97395833333332L234.11025,58.97395833333332L236.44912499999998,108.11892361111111L238.825125,157.26388888888889L241.164,157.26388888888889L243.50287500000002,58.97395833333332L245.84175,58.97395833333332L248.180625,58.97395833333332L250.51950000000002,9.828993055555541L252.858375,-39.31597222222228" style="fill: none;" fill="none"></path></g></g></g></g></g></g><g transform="translate(51, 176)" clip-path="url(#clip_1)"><clipPath id="clip_1"><rect width="278" height="23"></rect></clipPath><g><g><line x1="0" y1="0" x2="0" y2="5" style="visibility: inherit;" fill="rgb(0, 0, 0)" stroke="rgb(204, 204, 204)" stroke-width="1px"></line><line x1="23.203125" y1="0" x2="23.203125" y2="5" style="visibility: inherit;" fill="rgb(0, 0, 0)" stroke="rgb(204, 204, 204)" stroke-width="1px"></line><line x1="46.40625" y1="0" x2="46.40625" y2="5" style="visibility: inherit;" fill="rgb(0, 0, 0)" stroke="rgb(204, 204, 204)" stroke-width="1px"></line><line x1="69.609375" y1="0" x2="69.609375" y2="5" style="visibility: inherit;" fill="rgb(0, 0, 0)" stroke="rgb(204, 204, 204)" stroke-width="1px"></line><line x1="92.8125" y1="0" x2="92.8125" y2="5" style="visibility: inherit;" fill="rgb(0, 0, 0)" stroke="rgb(204, 204, 204)" stroke-width="1px"></line><line x1="116.015625" y1="0" x2="116.015625" y2="5" style="visibility: inherit;" fill="rgb(0, 0, 0)" stroke="rgb(204, 204, 204)" stroke-width="1px"></line><line x1="139.21875" y1="0" x2="139.21875" y2="5" style="visibility: inherit;" fill="rgb(0, 0, 0)" stroke="rgb(204, 204, 204)" stroke-width="1px"></line><line x1="162.421875" y1="0" x2="162.421875" y2="5" style="visibility: inherit;" fill="rgb(0, 0, 0)" stroke="rgb(204, 204, 204)" stroke-width="1px"></line><line x1="185.625" y1="0" x2="185.625" y2="5" style="visibility: inherit;" fill="rgb(0, 0, 0)" stroke="rgb(204, 204, 204)" stroke-width="1px"></line><line x1="208.828125" y1="0" x2="208.828125" y2="5" style="visibility: inherit;" fill="rgb(0, 0, 0)" stroke="rgb(204, 204, 204)" stroke-width="1px"></line><line x1="232.03125" y1="0" x2="232.03125" y2="5" style="visibility: inherit;" fill="rgb(0, 0, 0)" stroke="rgb(204, 204, 204)" stroke-width="1px"></line><line x1="255.234375" y1="0" x2="255.234375" y2="5" style="visibility: inherit;" fill="rgb(0, 0, 0)" stroke="rgb(204, 204, 204)" stroke-width="1px"></line><line x1="278.4375" y1="0" x2="278.4375" y2="5" style="visibility: inherit;" fill="rgb(0, 0, 0)" stroke="rgb(204, 204, 204)" stroke-width="1px"></line></g><g transform="translate(0, 8)"><text x="0" y="0" dx="0em" dy="0.95em" style="text-anchor: middle; visibility: hidden; font-family: Roboto, sans-serif; font-size: 12px; font-weight: 200;" fill="rgb(33, 33, 33)" stroke="none" stroke-width="1px">-10k</text><text x="23.203125" y="0" dx="0em" dy="0.95em" style="text-anchor: middle; visibility: inherit; font-family: Roboto, sans-serif; font-size: 12px; font-weight: 200;" fill="rgb(33, 33, 33)" stroke="none" stroke-width="1px">0</text><text x="46.40625" y="0" dx="0em" dy="0.95em" style="text-anchor: middle; visibility: hidden; font-family: Roboto, sans-serif; font-size: 12px; font-weight: 200;" fill="rgb(33, 33, 33)" stroke="none" stroke-width="1px">10k</text><text x="69.609375" y="0" dx="0em" dy="0.95em" style="text-anchor: middle; visibility: inherit; font-family: Roboto, sans-serif; font-size: 12px; font-weight: 200;" fill="rgb(33, 33, 33)" stroke="none" stroke-width="1px">20k</text><text x="92.8125" y="0" dx="0em" dy="0.95em" style="text-anchor: middle; visibility: hidden; font-family: Roboto, sans-serif; font-size: 12px; font-weight: 200;" fill="rgb(33, 33, 33)" stroke="none" stroke-width="1px">30k</text><text x="116.015625" y="0" dx="0em" dy="0.95em" style="text-anchor: middle; visibility: inherit; font-family: Roboto, sans-serif; font-size: 12px; font-weight: 200;" fill="rgb(33, 33, 33)" stroke="none" stroke-width="1px">40k</text><text x="139.21875" y="0" dx="0em" dy="0.95em" style="text-anchor: middle; visibility: hidden; font-family: Roboto, sans-serif; font-size: 12px; font-weight: 200;" fill="rgb(33, 33, 33)" stroke="none" stroke-width="1px">50k</text><text x="162.421875" y="0" dx="0em" dy="0.95em" style="text-anchor: middle; visibility: inherit; font-family: Roboto, sans-serif; font-size: 12px; font-weight: 200;" fill="rgb(33, 33, 33)" stroke="none" stroke-width="1px">60k</text><text x="185.625" y="0" dx="0em" dy="0.95em" style="text-anchor: middle; visibility: hidden; font-family: Roboto, sans-serif; font-size: 12px; font-weight: 200;" fill="rgb(33, 33, 33)" stroke="none" stroke-width="1px">70k</text><text x="208.828125" y="0" dx="0em" dy="0.95em" style="text-anchor: middle; visibility: inherit; font-family: Roboto, sans-serif; font-size: 12px; font-weight: 200;" fill="rgb(33, 33, 33)" stroke="none" stroke-width="1px">80k</text><text x="232.03125" y="0" dx="0em" dy="0.95em" style="text-anchor: middle; visibility: hidden; font-family: Roboto, sans-serif; font-size: 12px; font-weight: 200;" fill="rgb(33, 33, 33)" stroke="none" stroke-width="1px">90k</text><text x="255.234375" y="0" dx="0em" dy="0.95em" style="text-anchor: middle; visibility: inherit; font-family: Roboto, sans-serif; font-size: 12px; font-weight: 200;" fill="rgb(33, 33, 33)" stroke="none" stroke-width="1px">100k</text><text x="278.4375" y="0" dx="0em" dy="0.95em" style="text-anchor: middle; visibility: hidden; font-family: Roboto, sans-serif; font-size: 12px; font-weight: 200;" fill="rgb(33, 33, 33)" stroke="none" stroke-width="1px">110k</text></g><line x1="0" y1="0" x2="278.4375" y2="0" fill="rgb(0, 0, 0)" stroke="rgb(204, 204, 204)" stroke-width="1px"></line></g></g></g></g></svg>